<?xml version="1.0" encoding="utf-8"?>
<!-- Generator: Adobe Illustrator 27.7.0, SVG Export Plug-In . SVG Version: 6.00 Build 0)  -->
<svg version="1.1" id="Layer_1" xmlns="http://www.w3.org/2000/svg" xmlns:xlink="http://www.w3.org/1999/xlink" x="0px" y="0px"
	 viewBox="0 0 200 100" style="enable-background:new 0 0 200 100;" xml:space="preserve">
<style type="text/css">
	.st0{fill:#FFFFFF;}
</style>
<g>
	<g>
		<path class="st0" d="M0,48.3h4.6v11.4h12.5V48.3h4.6v27.5h-4.6V64.1H4.6v11.8H0V48.3z"/>
		<path class="st0" d="M28.7,48.3h4.6v13.8v13.8h-4.6V62.1V48.3z"/>
		<path class="st0" d="M39.1,62.1c0-9.5,6.5-14.2,13.9-14.2c2.7,0,5.2,0.6,6.4,1.1l-1.3,4.1c-1.3-0.4-3.5-0.9-4.9-0.9
			c-5.6,0-9.5,3.6-9.5,10s3.7,9.9,8.8,9.9c1.2,0,2.2-0.2,2.9-0.4v-9H60V75c-1.8,0.8-5.2,1.3-7.4,1.3C45.5,76.3,39.1,71.7,39.1,62.1z
			"/>
		<path class="st0" d="M66.6,48.3h4.6v11.4h12.5V48.3h4.6v27.5h-4.6V64.1H71.2v11.8h-4.6V48.3z"/>
		<path class="st0" d="M92.5,48.3h4.9l7.8,18.9l7.6-18.9h4.6l-11.6,27.8h-1.5L92.5,48.3z"/>
		<path class="st0" d="M121.8,48.3h4.6V62v13.9h-4.6V62V48.3z"/>
		<path class="st0" d="M131.6,74.2l1.4-3.9c1.8,0.7,5.1,1.9,8.6,1.9c3.5,0,5.4-1.2,5.4-3.5c0-2.5-2.8-3.5-5.9-4.7
			c-4.3-1.6-8.7-3.3-8.7-8.6c0-5.2,4.1-7.4,9.8-7.4c4,0,6.8,0.9,7.8,1.4l-1.3,4.1c-2.2-0.8-4.7-1.2-6.9-1.2c-2.9,0-4.8,0.9-4.8,3
			c0,2.4,2.7,3.4,5.8,4.6c4.3,1.7,8.8,3.4,8.8,8.7c0,4.5-3,7.8-10.7,7.8C137.1,76.3,133.5,75.2,131.6,74.2z"/>
		<path class="st0" d="M163.2,52.7h-8.3v-4.3h21.2v4.3h-8.3v23.2h-4.6V52.7z"/>
		<path class="st0" d="M179.7,75.9h-4.6L186.7,48h1.5L200,75.9h-4.9l-2-4.9h-11.5L179.7,75.9z M187.4,56.9l-4.1,10.2h8.3L187.4,56.9
			z"/>
	</g>
	<g>
		<path class="st0" d="M66.6,99l0.5-1c0.8,0.4,2.3,0.9,3.8,0.9c2.1,0,3.2-0.9,3.2-2.3c0-1.6-1.5-2.2-3.1-3c-2-0.9-3.8-1.7-3.8-3.9
			c0-1.9,1.5-3.1,4-3.1c1.7,0,2.8,0.4,3.3,0.6l-0.3,1c-1.1-0.4-2.2-0.6-3-0.6c-1.8,0-2.8,0.7-2.8,2c0,1.5,1.5,2.2,3.1,2.9
			c2,0.9,3.8,1.7,3.8,4c0,1.9-1.4,3.4-4.4,3.4C69.2,100,67.5,99.5,66.6,99z"/>
		<path class="st0" d="M84.7,87.9h-4v-1.1h9.1v1.1h-4v11.9h-1.1V87.9z"/>
		<path class="st0" d="M104.9,99.8h-1.3l-3.2-4.8c-0.6,0.1-1.3,0.2-2.1,0.2h-1.2v4.6H96V86.9h2.1c4.2,0,6.1,1.4,6.1,4.1
			c0,1.8-0.9,3.1-2.7,3.7L104.9,99.8z M98.4,94.1c3.4,0,4.7-1,4.7-3.1c0-2.1-1.4-3.1-4.7-3.1h-1.3v6.1H98.4z"/>
		<path class="st0" d="M111.7,99.8h-1.2l5.2-13.1h0.2l5.2,13.1H120l-1.2-3h-5.9L111.7,99.8z M115.9,89.3l-2.5,6.4h5.1L115.9,89.3z"
			/>
		<path class="st0" d="M128.8,87.9h-4v-1.1h9.1v1.1h-4v11.9h-1.1V87.9z"/>
		<path class="st0" d="M140.1,86.9h6.9v1.1h-5.7v4.8h4.6v1.1h-4.6v4.8h5.9v1.1h-7.1V86.9z"/>
		<path class="st0" d="M153,93.4c0-4.7,3-6.6,6.4-6.6c1.1,0,2.3,0.2,2.9,0.5l-0.3,1c-0.7-0.2-1.7-0.4-2.5-0.4c-3,0-5.2,1.9-5.2,5.5
			c0,3.7,2.3,5.5,4.9,5.5c0.9,0,1.7-0.2,2.2-0.3v-4.9h1.1v5.7c-1,0.4-2.4,0.6-3.3,0.6C156.1,99.9,153,98.1,153,93.4z"/>
		<path class="st0" d="M170,86.9h1.1v6.5v6.5H170v-6.5V86.9z"/>
		<path class="st0" d="M178.4,86.9h6.9v1.1h-5.7v4.8h4.6v1.1h-4.6v4.8h5.9v1.1h-7.1V86.9z"/>
		<path class="st0" d="M191.3,99l0.5-1c0.8,0.4,2.3,0.9,3.8,0.9c2.1,0,3.2-0.9,3.2-2.3c0-1.6-1.5-2.2-3.1-3c-2-0.9-3.8-1.7-3.8-3.9
			c0-1.9,1.5-3.1,4-3.1c1.7,0,2.8,0.4,3.3,0.6l-0.3,1c-1.1-0.4-2.2-0.6-3-0.6c-1.8,0-2.8,0.7-2.8,2c0,1.5,1.5,2.2,3.1,2.9
			c2,0.9,3.8,1.7,3.8,4c0,1.9-1.4,3.4-4.4,3.4C193.9,100,192.3,99.5,191.3,99z"/>
	</g>
	<g>
		<polygon id="XMLID_18_" class="st0" points="154.8,35.2 136.7,23.4 114.6,37.8 135.3,31.2 		"/>
		<polygon id="XMLID_17_" class="st0" points="134.9,22.4 118.5,11.8 78.9,38 117.9,19.9 		"/>
		<polygon id="XMLID_16_" class="st0" points="117.1,10.8 100.7,0 42.8,37.9 100.7,9.6 		"/>
	</g>
</g>
</svg>
